<?xml version="1.0" standalone="no"?>
<!DOCTYPE svg PUBLIC "-//W3C//DTD SVG 20010904//EN"
 "http://www.w3.org/TR/2001/REC-SVG-20010904/DTD/svg10.dtd">
<svg version="1.0" xmlns="http://www.w3.org/2000/svg"
 width="550.000000pt" height="331.000000pt" viewBox="0 0 550.000000 331.000000"
 preserveAspectRatio="xMidYMid meet">
<metadata>
Created by potrace 1.16, written by Peter Selinger 2001-2019
</metadata>
<g transform="translate(0.000000,331.000000) scale(0.100000,-0.100000)"
fill="#000000" stroke="none">
<path d="M225 3201 c19 -8 19 -8 0 -18 -15 -9 -22 -8 -30 4 -9 12 -21 14 -47
9 -49 -9 -81 -36 -118 -102 -26 -47 -29 -58 -18 -72 10 -12 10 -14 1 -8 -10 6
-13 -33 -13 -179 l0 -185 33 -21 c30 -20 26 -20 -20 -2 -35 13 -3 -10 45 -32
38 -18 53 -20 62 -12 10 10 10 7 1 -10 -14 -27 -14 -36 -1 -28 7 4 9 -2 5 -17
-15 -59 50 -140 132 -164 29 -9 63 -12 75 -8 13 3 20 3 16 -1 -20 -21 115 -81
158 -71 13 4 24 2 24 -4 0 -13 36 -13 60 0 16 9 18 8 13 -7 -5 -13 -3 -15 12
-9 11 4 16 4 13 0 -4 -3 5 -22 19 -41 28 -36 76 -67 87 -55 4 3 4 -2 0 -12 -5
-13 -4 -17 4 -12 8 5 10 2 6 -8 -10 -25 16 -86 53 -127 37 -41 90 -64 124 -54
16 5 19 4 14 -5 -6 -10 -1 -11 21 -6 16 4 26 4 21 0 -4 -4 5 -15 21 -24 20
-13 31 -15 42 -7 12 9 13 9 3 -3 -15 -16 -18 -44 -4 -36 5 3 8 -9 7 -27 0 -20
3 -31 11 -30 9 2 10 -4 3 -23 -14 -37 -13 -57 5 -51 11 5 12 1 5 -19 -6 -14
-10 -35 -10 -47 0 -18 2 -19 11 -7 8 12 9 9 5 -13 -9 -38 30 -128 51 -120 13
5 13 3 4 -16 -15 -27 -4 -72 11 -50 7 10 8 9 3 -6 -4 -11 -9 -36 -12 -55 -4
-28 -2 -32 7 -20 9 12 10 8 5 -17 -6 -31 24 -123 41 -123 3 0 3 7 0 16 -3 8
-2 13 2 10 4 -2 6 -30 5 -61 -1 -56 -3 -59 -54 -109 -30 -28 -47 -42 -39 -31
8 11 32 37 55 58 22 21 33 35 25 31 -74 -37 -135 -129 -125 -191 4 -30 3 -34
-5 -18 -7 14 -9 -18 -7 -110 3 -137 11 -165 52 -183 11 -5 40 -18 65 -30 71
-34 101 -43 121 -37 10 4 18 9 18 13 -3 19 2 23 16 12 17 -14 20 -40 5 -40 -5
0 -7 8 -3 18 4 10 3 13 -3 7 -5 -5 -13 -13 -19 -17 -5 -4 11 -16 35 -27 68
-31 206 -29 280 4 30 13 48 24 39 25 -9 0 -16 6 -16 13 0 7 14 12 38 12 20 0
35 -3 32 -7 -2 -5 2 -8 9 -8 10 0 9 -3 -2 -11 -12 -8 -11 -9 5 -6 11 2 19 8
18 15 -2 6 4 9 12 6 18 -7 19 -21 3 -27 -7 -2 24 -16 69 -31 59 -20 91 -25
117 -20 20 3 33 10 30 15 -3 5 10 9 28 9 22 0 29 -3 19 -9 -9 -6 2 -11 33 -15
35 -6 56 -2 91 13 25 11 45 22 45 26 0 3 -17 -2 -37 -11 -50 -22 -93 -29 -93
-16 0 6 5 14 10 17 6 3 10 1 10 -4 0 -6 4 -11 10 -11 5 0 6 8 3 18 -6 15 -5
15 10 3 15 -12 17 -12 11 2 -5 13 0 15 22 11 25 -5 26 -3 13 12 -13 16 -12 16
8 6 12 -7 29 -9 39 -5 13 5 15 3 9 -7 -6 -10 -4 -12 8 -7 9 3 18 0 21 -9 5
-12 1 -14 -17 -10 -21 6 -21 6 -1 -5 11 -6 28 -24 38 -40 10 -16 29 -37 44
-46 15 -10 30 -22 34 -28 5 -6 8 -5 8 3 0 6 8 12 18 12 14 0 15 -2 2 -10 -12
-8 -10 -10 10 -11 17 -1 19 -3 8 -6 -10 -2 -18 -8 -18 -13 0 -5 6 -8 13 -6 6
1 9 1 5 -1 -13 -7 -9 -23 4 -20 7 1 12 -3 13 -10 0 -6 14 -22 30 -34 17 -13
36 -32 43 -41 7 -10 18 -15 24 -12 7 4 8 2 4 -5 -4 -6 -12 -8 -18 -5 -7 5 -8
2 -4 -5 5 -7 15 -10 23 -7 8 3 11 1 8 -4 -3 -6 1 -10 9 -10 9 0 16 5 16 11 0
5 5 7 10 4 20 -12 10 -25 -20 -25 -35 0 -104 55 -96 77 4 9 1 11 -6 7 -7 -5
-8 -3 -3 6 5 8 4 11 -2 7 -12 -8 -42 23 -60 61 l-13 27 5 -29 c8 -37 109 -152
142 -161 34 -8 114 5 107 17 -4 6 4 5 16 -2 16 -9 19 -14 11 -20 -17 -10 34
-50 63 -50 16 0 14 4 -13 18 -18 10 -33 21 -32 25 1 4 1 12 1 18 0 5 5 7 10 4
6 -4 8 -11 5 -16 -3 -5 0 -6 8 -3 8 3 18 0 23 -7 5 -8 3 -10 -7 -4 -11 6 -12
5 -2 -5 10 -11 15 -11 29 1 16 12 17 12 11 -4 -5 -13 -3 -17 5 -14 7 2 12 9
11 14 -1 5 4 10 11 10 22 0 16 -36 -7 -40 -12 -2 -1 -5 25 -6 46 -1 74 14 41
22 -10 2 1 3 23 3 23 -1 40 -4 37 -8 -2 -5 4 -8 14 -9 16 0 16 -1 -2 -10 -15
-7 -11 -8 18 -4 80 11 107 18 101 26 -3 5 2 6 10 3 9 -3 13 -10 10 -15 -3 -5
4 -9 15 -9 13 0 21 7 21 17 0 13 3 14 12 5 14 -14 32 -16 23 -2 -3 6 1 7 9 4
10 -4 16 -1 16 7 0 7 3 9 7 6 3 -4 15 1 25 10 15 13 19 14 16 3 -2 -7 6 -15
17 -17 11 -2 16 -1 10 4 -5 4 -11 14 -13 21 -2 9 5 9 27 -3 17 -8 38 -15 48
-14 15 0 15 2 3 7 -8 4 -16 13 -18 20 -2 9 5 9 27 -3 31 -15 65 -21 46 -7 -5
4 -11 12 -12 18 -3 15 30 12 40 -3 4 -7 20 -13 35 -12 23 1 24 2 7 7 -36 12
-28 31 8 21 20 -5 46 -5 65 0 20 6 30 6 27 0 -4 -5 0 -9 7 -10 7 -1 2 -5 -12
-9 -22 -7 -23 -8 -4 -9 12 -1 38 6 57 14 41 17 59 19 37 5 -11 -7 -3 -10 30
-10 25 0 40 4 33 8 -6 4 6 7 27 7 21 0 34 -3 27 -7 -6 -4 0 -9 16 -14 16 -3
31 -4 34 0 4 3 0 6 -9 6 -33 0 -13 25 21 27 25 1 30 -1 17 -6 -18 -7 -18 -8
-2 -14 10 -4 30 -7 44 -6 l27 1 -25 8 c-23 7 -22 8 10 9 19 1 30 5 23 9 -6 4
8 7 32 7 24 0 41 -3 38 -8 -8 -13 27 -19 74 -12 37 5 57 17 102 59 31 29 72
63 91 76 48 34 99 89 86 93 -8 3 -7 8 1 17 10 11 17 10 37 -4 15 -9 26 -13 26
-9 0 5 4 2 9 -6 8 -13 12 -13 28 -1 10 8 15 11 11 6 -4 -5 -3 -17 3 -27 13
-24 2 -24 -40 2 -18 11 -38 18 -45 16 -6 -2 12 -14 40 -27 35 -16 57 -34 70
-58 26 -48 67 -80 164 -124 88 -41 139 -45 125 -11 -5 14 -2 13 16 -2 l21 -20
-24 -6 c-22 -7 -22 -7 4 -8 33 -1 63 10 50 18 -6 3 29 4 76 3 48 -2 91 -8 97
-13 5 -6 4 -9 -5 -9 -9 0 -8 -5 5 -20 23 -25 140 -90 163 -90 9 0 -15 15 -53
34 -80 38 -109 64 -95 86 8 13 10 13 10 -1 0 -9 8 -23 18 -30 15 -13 16 -12 3
4 -8 9 -11 20 -7 24 3 3 6 2 6 -3 0 -5 9 -20 20 -34 l19 -25 -5 25 c-3 20 -2
20 7 -5 11 -27 13 -28 20 -10 7 18 8 17 8 -5 1 -20 3 -22 11 -10 8 12 10 12
10 -5 1 -19 1 -19 11 -2 10 17 12 18 30 1 10 -9 16 -21 13 -25 -3 -5 2 -9 10
-9 8 0 17 4 20 9 3 5 23 11 45 13 28 2 37 0 34 -9 -3 -7 2 -13 12 -13 9 0 14
4 11 9 -3 5 1 14 9 21 13 11 14 10 9 -4 -3 -9 -1 -16 5 -16 6 0 11 8 11 18 0
14 2 15 10 2 6 -9 10 -11 10 -3 0 7 7 10 16 6 32 -12 -39 -37 -126 -44 l-85
-7 91 2 c66 1 99 7 117 19 15 9 51 26 82 38 56 21 79 43 90 90 4 17 1 31 -9
42 -14 13 -14 16 -1 21 8 3 15 0 15 -6 0 -6 3 -8 7 -4 5 4 0 14 -10 21 -18 13
-7 32 11 21 5 -3 9 61 10 142 1 141 0 147 -21 160 -22 13 -22 13 3 8 23 -5 22
-3 -10 23 -19 16 -44 42 -57 57 -22 28 -22 28 -17 4 4 -22 3 -22 -5 -5 -9 22
-6 35 10 35 5 0 30 -20 54 -45 25 -24 45 -41 45 -37 0 29 -150 135 -167 119
-2 -3 11 -10 29 -16 19 -7 28 -15 22 -19 -6 -4 -14 -14 -18 -22 -3 -8 -4 -5
-2 8 4 21 -7 31 -17 14 -2 -4 -2 -1 -1 6 4 16 -13 16 -19 0 -3 -7 -6 -4 -6 7
-1 17 -3 17 -11 5 -8 -13 -10 -12 -10 3 0 9 5 17 11 17 6 0 -12 18 -40 40 -28
22 -51 46 -51 53 0 8 -4 7 -10 -3 -6 -9 -5 -17 1 -21 6 -3 1 -9 -10 -12 -24
-6 -25 -3 -11 24 9 15 7 19 -6 19 -13 0 -14 3 -4 15 6 8 8 20 4 26 -5 8 -3 9
6 4 10 -6 12 -4 7 9 -4 10 -3 15 3 11 6 -3 10 -2 10 4 0 5 -5 11 -12 13 -7 3
-5 7 6 11 11 5 15 3 10 -5 -4 -7 -3 -8 5 -4 9 6 9 11 -1 24 -11 13 -10 15 4 9
13 -4 15 -2 11 10 -4 11 -2 14 5 9 7 -4 12 -3 12 3 0 5 -6 12 -12 14 -8 3 -6
6 5 6 24 1 21 -18 -14 -84 -17 -31 -29 -59 -27 -61 2 -2 19 24 37 57 25 46 31
66 26 89 -4 17 -11 28 -16 24 -12 -7 -11 0 3 33 l13 27 6 -34 c4 -22 6 -2 6
50 0 59 -2 73 -6 45 -6 -38 -7 -39 -19 -17 -8 14 -9 22 -2 22 5 0 10 7 10 16
0 9 -5 12 -12 8 -8 -5 -9 -2 -5 9 3 10 2 17 -3 17 -5 0 -7 6 -4 14 3 8 0 17
-7 22 -7 4 -10 3 -6 -3 4 -6 -1 -17 -11 -24 -15 -12 -16 -12 -4 2 10 13 9 19
-3 29 -8 7 -12 16 -9 21 3 5 1 9 -5 9 -5 0 -11 -6 -14 -12 -2 -7 -3 -5 -2 5 3
17 -9 24 -18 10 -2 -5 -2 -2 -1 5 4 14 -8 16 -22 2 -6 -6 -10 -3 -11 10 -1 11
3 20 8 20 6 0 8 -3 6 -7 -3 -5 6 -9 20 -10 35 -2 75 -33 95 -74 9 -19 17 -28
18 -21 1 38 -58 102 -94 102 -9 0 -30 13 -48 29 -41 35 -71 51 -95 50 -10 0
-4 -5 13 -10 41 -12 76 -50 64 -69 -8 -13 -10 -13 -10 2 0 9 -5 20 -12 24 -6
4 -8 3 -4 -4 3 -6 1 -14 -5 -18 -7 -4 -9 -3 -5 4 3 6 2 13 -4 17 -6 4 -7 11
-4 17 5 8 1 9 -10 5 -11 -5 -15 -3 -10 5 5 8 2 9 -11 4 -11 -4 -22 -2 -27 6
-5 8 -11 9 -15 3 -5 -5 -13 -11 -20 -12 -19 -4 -4 25 15 30 12 3 11 5 -5 6
-12 0 -26 -6 -31 -15 -8 -14 -10 -14 -21 0 -11 14 -11 16 5 17 11 0 4 5 -14
10 -26 8 -39 7 -57 -5 -12 -8 -25 -12 -29 -9 -10 10 -7 33 4 33 5 0 6 -8 3
-17 -6 -15 -5 -16 9 -3 13 13 11 17 -20 42 -19 16 -40 28 -46 28 -6 0 1 -8 14
-17 14 -9 26 -17 28 -18 1 -1 0 -10 -4 -19 -6 -15 -8 -14 -18 5 -13 27 -33 35
-39 17 -2 -7 -3 -5 -2 5 2 9 -1 17 -6 17 -5 0 -9 -6 -9 -12 0 -10 -3 -9 -9 1
-7 11 -9 11 -14 0 -4 -9 -6 -8 -6 5 -1 11 4 16 12 13 8 -3 20 -1 28 4 9 5 10
9 2 9 -6 0 -13 12 -15 28 -2 15 -7 26 -13 25 -6 -1 -10 9 -10 22 0 24 13 28
28 10 5 -5 6 4 2 20 -4 17 -9 51 -12 77 -3 27 -8 46 -12 44 -4 -3 -7 4 -7 14
0 14 4 16 13 9 16 -14 28 47 15 81 -19 51 -85 84 -113 58 -22 -20 -37 -20 -49
2 -6 11 -15 18 -21 15 -5 -4 -9 0 -9 7 0 8 -3 9 -8 3 -13 -18 -34 -16 -39 5
-3 11 -10 20 -15 20 -6 0 -7 -7 -4 -16 5 -14 4 -15 -9 -4 -21 17 -19 30 4 30
30 0 118 -44 115 -58 -1 -7 0 -8 3 -2 2 5 12 10 21 10 25 1 -109 59 -135 60
-12 0 -28 -6 -35 -13 -11 -11 -20 -11 -48 -2 -24 8 -30 14 -20 18 10 5 8 6 -5
4 -14 -2 -19 -9 -17 -22 3 -20 3 -20 -11 0 -9 11 -11 22 -7 25 16 10 -123 149
-155 156 -25 5 -23 3 15 -18 27 -15 44 -32 44 -41 -1 -9 2 -15 6 -12 3 2 24
-14 45 -35 31 -32 37 -42 26 -52 -10 -11 -14 -10 -22 5 -6 9 -16 17 -23 17 -8
0 -17 7 -20 16 -6 16 4 13 40 -15 11 -9 -2 5 -29 31 -28 26 -54 45 -58 42 -5
-3 -6 3 -2 12 5 13 3 15 -7 9 -9 -5 -11 -4 -6 3 4 7 3 12 -3 12 -5 0 -11 -3
-14 -7 -2 -5 -2 -2 -1 5 4 16 -13 16 -19 0 -3 -8 -6 -6 -6 5 -1 19 -21 24 -21
5 0 -9 -3 -9 -12 0 -10 10 -10 15 2 22 13 9 13 10 0 10 -9 0 -21 -5 -28 -12
-6 -6 -15 -8 -19 -4 -4 4 -2 11 5 15 10 6 5 12 -17 20 -35 15 -75 6 -67 -15 4
-11 -1 -10 -21 3 l-27 18 29 6 c17 4 -23 7 -87 8 -116 1 -152 -4 -143 -19 3
-5 -9 -3 -26 3 -30 12 -30 12 -7 19 13 4 -29 6 -92 5 -85 -2 -123 -7 -145 -19
-16 -10 -25 -17 -19 -18 18 0 12 -26 -7 -26 -10 0 -15 4 -13 8 6 10 -40 21
-63 15 -12 -3 -8 -5 10 -6 17 -1 26 -5 22 -11 -4 -6 -16 -8 -27 -4 -15 4 -18
3 -13 -7 6 -9 4 -11 -8 -6 -11 4 -18 -1 -22 -14 -4 -10 -10 -17 -14 -14 -11 6
-53 -40 -44 -48 3 -4 1 -7 -6 -7 -8 0 -11 7 -7 18 3 9 -6 4 -20 -13 -14 -16
-23 -24 -19 -17 4 8 2 13 -6 11 -33 -4 -40 0 -27 15 9 10 15 11 20 3 5 -8 19
0 42 22 21 21 39 30 47 26 7 -5 10 -4 5 3 -4 6 5 18 21 26 15 8 21 15 14 16
-20 0 -90 -49 -102 -72 -13 -25 -25 -16 -33 25 -7 39 -26 57 -117 116 -37 23
-74 50 -84 61 -26 29 -139 64 -164 51 -25 -14 -31 -14 -31 -1 0 6 7 10 17 10
9 0 14 3 10 6 -10 11 -48 -7 -40 -19 4 -7 -1 -5 -11 3 -17 13 -17 14 0 20 15
6 14 8 -9 14 -31 7 -67 -6 -48 -18 6 -4 11 -2 11 3 0 6 7 11 15 11 8 0 12 -6
9 -14 -4 -11 -30 -15 -41 -6 -2 2 -9 3 -15 4 -15 1 -24 36 -9 36 6 0 7 -8 4
-17 -6 -15 -5 -16 8 -3 14 12 10 18 -32 52 -28 22 -52 50 -58 71 -25 75 -203
189 -269 172 -20 -5 -22 -8 -11 -21 9 -11 4 -10 -19 3 l-32 18 28 6 c16 4 -1
7 -46 8 -52 1 -80 -4 -97 -15 -24 -15 -25 -15 -35 10 -11 29 -23 36 -13 9 5
-15 3 -14 -10 2 -8 11 -13 23 -11 27 3 5 1 8 -5 8 -5 0 -11 -6 -14 -12 -2 -7
-3 -5 -2 5 3 19 -11 23 -18 5 -2 -7 -3 -5 -2 5 3 18 -21 24 -27 6 -2 -7 -9 -5
-17 5 -12 14 -10 16 12 16 58 0 131 -48 119 -78 -5 -14 -4 -14 9 -2 14 12 13
17 -9 42 -33 37 -78 48 -182 47 -54 -1 -74 -4 -55 -8 l30 -7 -34 -12 c-19 -7
-37 -10 -39 -7 -3 3 1 5 9 5 11 0 11 2 -1 10 -8 5 -24 9 -35 9 l-20 0 20 -9
c11 -5 14 -9 7 -9 -7 -1 -11 -5 -8 -10 3 -4 -6 -6 -19 -3 -14 2 -25 8 -25 13
0 13 -84 11 -98 -3 -9 -9 -15 -9 -24 0 -13 13 -42 17 -34 4 2 -4 -4 -8 -14 -8
-11 0 -16 5 -12 14 3 10 16 13 46 8 34 -4 37 -4 16 5 -27 11 -103 2 -95 -11 3
-5 1 -11 -5 -15 -5 -3 -10 -1 -10 5 0 8 -18 11 -54 8 -30 -1 -52 0 -49 5 2 4
-2 7 -9 8 -7 0 -4 4 7 9 18 8 18 9 -5 9 -26 1 -69 35 -97 77 -24 37 -69 57
-109 49 -19 -3 -32 -10 -29 -16 10 -15 -11 -11 -24 5 -10 11 -8 15 6 20 11 3
8 4 -7 3 -14 -2 -24 -8 -23 -14 2 -7 -4 -10 -12 -7 -18 7 -20 24 -2 24 18 1
-34 27 -69 34 -22 5 -36 2 -47 -8 -13 -14 -16 -14 -21 -1 -3 10 1 15 12 15 9
0 -2 9 -25 20 -24 10 -43 24 -43 30 0 13 -60 50 -80 50 -8 -1 1 -9 21 -20 19
-10 42 -26 49 -35 17 -20 22 -45 9 -45 -5 0 -9 4 -9 8 0 5 -7 17 -15 28 -15
19 -15 19 -9 -1 5 -16 4 -17 -4 -5 -6 8 -9 17 -6 21 2 4 -3 9 -11 12 -9 4 -12
1 -9 -7 3 -8 0 -17 -7 -22 -7 -4 -10 -3 -6 4 4 5 4 18 0 28 -6 16 -7 16 -14
-2 -7 -17 -8 -16 -8 6 -1 20 -3 22 -11 10 -8 -13 -10 -12 -10 4 0 12 -5 16
-15 12 -8 -3 -15 -1 -15 4 0 6 -4 9 -9 8 -5 -2 -17 6 -25 17 l-16 20 7 -20 c7
-19 6 -19 -11 -2 -9 9 -22 17 -27 17 -6 0 -7 5 -4 10 3 6 2 10 -4 10 -5 0 -11
-5 -13 -12 -3 -9 -6 -9 -12 0 -4 7 0 15 10 19 19 7 90 -27 87 -43 -1 -5 6 -10
15 -10 9 -1 26 -5 37 -9 11 -5 -2 8 -30 27 -64 44 -80 50 -122 42 -24 -5 -31
-10 -24 -18 7 -8 4 -12 -9 -12 -10 0 -17 3 -14 7 2 4 -20 11 -48 15 l-53 9 70
6 70 5 -72 2 c-79 2 -114 -5 -91 -19 7 -5 9 -9 3 -9 -5 0 -17 5 -25 10 -12 8
-12 12 -2 18 9 6 0 12 -27 20 -37 12 -71 8 -71 -7 0 -4 -8 -7 -19 -7 -25 0
-15 24 12 29 17 3 15 5 -7 6 -16 0 -46 -4 -68 -11 -29 -9 -41 -9 -50 0 -7 7
-28 12 -48 11 -27 0 -30 -2 -15 -8z m130 -181 c4 -6 12 -10 18 -9 7 1 25 -3
40 -9 16 -7 39 -12 51 -12 13 0 35 -9 49 -20 29 -23 64 -26 86 -6 21 18 61 30
61 18 0 -9 37 -35 99 -69 13 -7 32 -13 42 -13 11 0 19 -7 19 -15 0 -26 37 -58
59 -52 13 3 28 -4 43 -20 19 -20 28 -23 60 -18 22 4 38 3 38 -3 0 -5 13 -12
30 -15 16 -4 39 -16 51 -28 20 -20 26 -21 53 -10 47 18 50 18 54 -7 2 -13 11
-26 20 -29 9 -3 26 -14 37 -24 51 -46 62 -55 88 -72 21 -14 32 -16 42 -7 10 8
14 8 18 -2 3 -10 9 -10 23 -2 19 11 50 2 65 -19 11 -14 58 4 65 26 6 18 7 18
16 4 5 -10 16 -17 23 -17 8 0 15 -5 15 -10 0 -6 11 -8 27 -4 19 5 30 2 39 -10
9 -13 17 -15 31 -8 37 20 125 33 139 21 13 -11 74 -3 84 11 3 4 20 11 38 15
27 6 32 4 32 -12 0 -19 69 -73 93 -73 7 0 27 -9 45 -20 40 -24 39 -24 45 -2 5
22 63 37 81 22 7 -5 22 -7 34 -3 15 3 24 0 28 -11 3 -9 12 -16 19 -16 7 0 15
-6 18 -14 3 -7 18 -17 34 -21 36 -9 58 -26 44 -35 -17 -10 9 -66 38 -83 15 -8
42 -31 61 -49 20 -20 55 -40 83 -47 26 -8 47 -18 47 -22 0 -5 22 -9 48 -9 27
0 57 -6 68 -15 10 -8 30 -15 43 -15 27 0 61 -26 61 -45 0 -14 28 -29 48 -26 6
1 12 -3 12 -9 0 -6 20 -19 45 -30 25 -11 45 -24 45 -31 0 -13 -37 -69 -57 -86
-23 -18 20 -72 52 -65 25 4 105 -26 105 -40 0 -17 29 -7 47 15 19 25 59 39
107 38 17 0 39 7 49 17 11 9 22 16 26 14 3 -1 7 6 9 16 2 11 17 32 33 46 25
23 36 26 62 20 18 -4 43 -8 57 -8 14 -1 36 -6 49 -10 21 -7 23 -6 16 22 -4 22
-2 31 11 36 9 3 22 2 28 -2 6 -5 29 -8 51 -6 54 3 81 -16 88 -63 7 -41 42 -88
58 -78 5 4 9 17 9 29 0 13 7 29 15 36 8 7 15 22 15 34 0 52 50 60 97 16 30
-28 35 -30 73 -21 40 9 43 8 78 -31 20 -22 39 -45 41 -51 2 -6 17 -23 32 -38
16 -16 29 -35 29 -44 0 -21 27 -30 53 -17 12 6 51 10 87 10 52 0 67 -4 78 -19
8 -11 25 -19 41 -19 17 0 31 -7 35 -16 4 -11 13 -14 30 -10 33 8 38 -17 15
-65 -14 -28 -16 -44 -9 -69 12 -42 8 -47 -39 -55 -32 -5 -42 -13 -55 -40 -9
-18 -16 -37 -16 -42 0 -6 21 -21 48 -36 26 -14 57 -39 70 -56 18 -25 28 -30
54 -27 39 5 80 -9 77 -26 -3 -17 12 -51 25 -60 6 -4 16 -2 24 4 10 9 19 9 34
-1 15 -9 23 -9 34 0 11 9 14 8 14 -9 0 -26 17 -37 35 -22 9 7 15 8 20 1 4 -7
16 -6 36 4 28 15 30 15 38 -7 17 -44 49 -68 80 -62 41 8 60 -11 51 -51 -10
-44 -85 -112 -133 -120 -42 -8 -55 -34 -41 -83 4 -15 8 -37 9 -49 1 -33 18
-45 65 -48 39 -2 71 -15 37 -15 -41 0 -3 -91 46 -111 17 -7 42 -23 55 -34 13
-11 51 -32 85 -46 34 -14 61 -30 60 -36 -1 -5 8 -16 20 -22 13 -7 28 -24 35
-39 12 -28 7 -72 -9 -72 -9 0 -26 -77 -21 -94 2 -4 0 -17 -4 -28 -5 -16 -12
-18 -42 -13 -34 5 -39 3 -55 -25 -17 -29 -37 -40 -37 -21 0 19 -32 41 -53 36
-17 -3 -31 7 -62 45 -22 27 -45 47 -51 45 -6 -2 -32 1 -58 7 -34 7 -51 7 -61
-2 -7 -6 -43 -13 -79 -15 -53 -3 -69 0 -90 16 -13 10 -32 19 -41 19 -24 0 -55
18 -92 53 -26 24 -30 34 -22 49 5 10 17 18 25 18 31 0 7 25 -27 28 -19 2 -38
8 -44 13 -5 5 -18 9 -29 9 -10 0 -26 7 -35 15 -22 21 -90 65 -100 65 -5 0 -11
-7 -15 -15 -8 -21 -28 -19 -49 5 -17 20 -33 24 -72 20 -24 -2 -35 -17 -35 -47
0 -13 -4 -23 -10 -23 -5 0 -10 5 -10 10 0 22 -37 7 -60 -25 -14 -19 -51 -52
-82 -75 -32 -22 -58 -45 -58 -50 0 -13 -37 -13 -45 0 -3 5 -15 10 -26 10 -10
0 -19 5 -19 11 0 6 -8 9 -17 7 -12 -2 -20 -15 -23 -38 -5 -33 -7 -35 -47 -36
-24 -1 -43 2 -43 7 0 17 -61 9 -83 -12 -19 -17 -23 -18 -25 -5 -5 22 -11 20
-38 -10 l-24 -25 -50 28 c-35 19 -53 24 -58 17 -9 -14 -48 -12 -64 4 -7 7 -19
12 -29 12 -12 0 -15 -7 -12 -27 4 -22 2 -25 -6 -13 -6 8 -11 24 -12 35 0 12
-4 7 -11 -14 -9 -31 -11 -33 -44 -28 -20 3 -47 1 -62 -5 -15 -5 -53 -12 -84
-14 -61 -3 -89 -14 -124 -45 -19 -18 -23 -18 -52 -3 -18 8 -41 13 -52 9 -12
-4 -27 -1 -35 5 -14 11 -39 9 -79 -6 -12 -4 -19 2 -27 23 -13 39 -70 60 -126
46 -49 -12 -117 -5 -105 11 5 6 13 21 16 34 6 17 3 22 -11 22 -13 1 -11 5 10
16 29 16 32 41 5 36 -8 -1 -32 14 -52 33 -21 19 -47 37 -59 40 -13 4 -30 23
-41 46 -11 22 -32 48 -48 57 -15 9 -28 22 -28 29 0 18 -27 16 -37 -2 -8 -13
-11 -13 -28 -1 -19 14 -19 16 -3 44 31 53 26 60 -57 67 -96 9 -131 -3 -139
-49 -4 -18 -17 -43 -30 -55 -14 -13 -23 -28 -20 -35 6 -16 -46 -19 -65 -3 -9
7 -50 23 -91 36 -41 13 -82 25 -90 28 -13 5 -51 6 -128 2 -13 -1 -29 7 -36 16
-16 22 -37 12 -84 -39 -39 -41 -52 -44 -77 -16 -10 11 -26 20 -37 20 -10 0
-18 7 -18 15 0 13 -4 14 -20 5 -16 -9 -29 -6 -64 15 -42 25 -44 28 -39 63 6
41 47 92 74 92 20 0 47 34 80 105 21 44 24 62 22 157 -2 92 -7 115 -29 163
-15 30 -30 58 -35 61 -5 3 -9 18 -9 34 0 16 -5 32 -10 35 -6 4 -7 23 -4 44 8
47 -22 158 -46 171 -12 6 -17 24 -19 62 -1 29 -6 82 -12 118 -22 139 -54 211
-102 226 -12 3 -42 16 -67 27 -25 11 -59 19 -77 19 -41 -2 -59 26 -73 112 -6
36 -13 72 -16 80 -8 21 -42 30 -60 15 -8 -6 -16 -10 -18 -8 -1 2 -18 25 -36
51 -18 26 -40 50 -49 53 -30 9 -146 26 -177 26 -22 -1 -36 7 -52 28 -13 18
-34 31 -55 35 -19 4 -40 13 -47 21 -16 19 -25 19 -44 0 -14 -14 -17 -14 -36 5
-12 12 -23 39 -26 68 -10 86 -11 87 -85 131 -39 22 -78 41 -85 41 -7 0 -15 3
-18 8 -6 9 49 127 63 137 6 3 11 14 11 24 0 14 9 18 47 20 26 1 49 3 51 6 9 9
31 5 37 -5z"/>
</g>
</svg>
